Broadcast-Regular.ufo
<glyph name="quotesingle" format="2">
  <advance width="200"/>
  <unicode hex="0027"/>
  <outline>
    <contour>
      <point x="0" y="400" type="line"/>
      <point x="0" y="200" type="line"/>
      <point x="100" y="200" type="line"/>
      <point x="100" y="400" type="line"/>
    </contour>
  </outline>
</glyph>
<glyph name="parenleft" format="2">
  <advance width="300"/>
  <unicode hex="0028"/>
  <outline>
    <contour>
      <point x="0" y="300" type="line"/>
      <point x="0" y="100" type="line"/>
      <point x="100" y="100" type="line"/>
      <point x="100" y="300" type="line"/>
    </contour>
    <contour>
      <point x="100" y="100" type="line"/>
      <point x="100" y="0" type="line"/>
      <point x="200" y="0" type="line"/>
      <point x="200" y="100" type="line"/>
    </contour>
    <contour>
      <point x="100" y="400" type="line"/>
      <point x="100" y="300" type="line"/>
      <point x="200" y="300" type="line"/>
      <point x="200" y="400" type="line"/>
    </contour>
    <contour>
      <point x="75" y="300" type="line"/>
      <point x="89" y="300"/>
      <point x="100" y="311"/>
      <point x="100" y="325" type="curve"/>
      <point x="100" y="300" type="line"/>
    </contour>
    <contour>
      <point x="125" y="300" type="line"/>
      <point x="111" y="300"/>
      <point x="100" y="289"/>
      <point x="100" y="275" type="curve"/>
      <point x="100" y="300" type="line"/>
    </contour>
    <contour>
      <point x="100" y="125" type="line"/>
      <point x="100" y="111"/>
      <point x="111" y="100"/>
      <point x="125" y="100" type="curve"/>
      <point x="100" y="100" type="line"/>
    </contour>
    <contour>
      <point x="100" y="75" type="line"/>
      <point x="100" y="89"/>
      <point x="89" y="100"/>
      <point x="75" y="100" type="curve"/>
      <point x="100" y="100" type="line"/>
    </contour>
  </outline>
</glyph>
<glyph name="comma" format="2">
  <advance width="200"/>
  <unicode hex="002C"/>
  <outline>
    <contour>
      <point x="0" y="200" type="line"/>
      <point x="0" y="0" type="line"/>
      <point x="100" y="0" type="line"/>
      <point x="100" y="200" type="line"/>
    </contour>
  </outline>
</glyph>
<glyph name="hyphen" format="2">
  <advance width="800"/>
  <unicode hex="002D"/>
  <outline>
    <contour>
      <point x="0" y="300" type="line"/>
      <point x="0" y="200" type="line"/>
      <point x="700" y="200" type="line"/>
      <point x="700" y="300" type="line"/>
    </contour>
  </outline>
</glyph>
<glyph name="slash" format="2">
  <advance width="300"/>
  <unicode hex="002F"/>
  <outline>
    <contour>
      <point x="100" y="400" type="line"/>
      <point x="100" y="200" type="line"/>
      <point x="200" y="200" type="line"/>
      <point x="200" y="400" type="line"/>
    </contour>
    <contour>
      <point x="0" y="200" type="line"/>
      <point x="0" y="0" type="line"/>
      <point x="100" y="0" type="line"/>
      <point x="100" y="200" type="line"/>
    </contour>
    <contour>
      <point x="75" y="200" type="line"/>
      <point x="89" y="200"/>
      <point x="100" y="211"/>
      <point x="100" y="225" type="curve"/>
      <point x="100" y="200" type="line"/>
    </contour>
    <contour>
      <point x="125" y="200" type="line"/>
      <point x="111" y="200"/>
      <point x="100" y="189"/>
      <point x="100" y="175" type="curve"/>
      <point x="100" y="200" type="line"/>
    </contour>
  </outline>
</glyph>
<glyph name="zero" format="2">
  <advance width="800"/>
  <unicode hex="0030"/>
  <outline>
    <contour>
      <point x="0" y="400" type="line"/>
      <point x="0" y="0" type="line"/>
      <point x="100" y="0" type="line"/>
      <point x="100" y="400" type="line"/>
    </contour>
    <contour>
      <point x="600" y="400" type="line"/>
      <point x="600" y="0" type="line"/>
      <point x="700" y="0" type="line"/>
      <point x="700" y="400" type="line"/>
    </contour>
    <contour>
      <point x="0" y="400" type="line"/>
      <point x="0" y="300" type="line"/>
      <point x="700" y="300" type="line"/>
      <point x="700" y="400" type="line"/>
    </contour>
    <contour>
      <point x="0" y="100" type="line"/>
      <point x="0" y="0" type="line"/>
      <point x="700" y="0" type="line"/>
      <point x="700" y="100" type="line"/>
    </contour>
    <contour>
      <point x="300" y="200" type="line"/>
      <point x="300" y="100" type="line"/>
      <point x="400" y="100" type="line"/>
      <point x="400" y="200" type="line"/>
    </contour>
    <contour>
      <point x="400" y="300" type="line"/>
      <point x="400" y="200" type="line"/>
      <point x="500" y="200" type="line"/>
      <point x="500" y="300" type="line"/>
    </contour>
    <contour>
      <point x="425" y="200" type="line"/>
      <point x="411" y="200"/>
      <point x="400" y="189"/>
      <point x="400" y="175" type="curve"/>
      <point x="400" y="200" type="line"/>
    </contour>
    <contour>
      <point x="375" y="200" type="line"/>
      <point x="389" y="200"/>
      <point x="400" y="211"/>
      <point x="400" y="225" type="curve"/>
      <point x="400" y="200" type="line"/>
    </contour>
  </outline>
</glyph>
<glyph name="three" format="2">
  <advance width="800"/>
  <unicode hex="0033"/>
  <outline>
    <contour>
      <point x="0" y="400" type="line"/>
      <point x="0" y="300" type="line"/>
      <point x="700" y="300" type="line"/>
      <point x="700" y="400" type="line"/>
    </contour>
    <contour>
      <point x="600" y="400" type="line"/>
      <point x="600" y="0" type="line"/>
      <point x="700" y="0" type="line"/>
      <point x="700" y="400" type="line"/>
    </contour>
    <contour>
      <point x="0" y="100" type="line"/>
      <point x="0" y="0" type="line"/>
      <point x="700" y="0" type="line"/>
      <point x="700" y="100" type="line"/>
    </contour>
    <contour>
      <point x="300" y="400" type="line"/>
      <point x="300" y="200" type="line"/>
      <point x="700" y="200" type="line"/>
      <point x="700" y="400" type="line"/>
    </contour>
  </outline>
</glyph>
<glyph name="O" format="2">
  <advance width="800"/>
  <unicode hex="004F"/>
  <outline>
    <contour>
      <point x="0" y="400" type="line"/>
      <point x="0" y="0" type="line"/>
      <point x="100" y="0" type="line"/>
      <point x="100" y="400" type="line"/>
    </contour>
    <contour>
      <point x="600" y="400" type="line"/>
      <point x="600" y="0" type="line"/>
      <point x="700" y="0" type="line"/>
      <point x="700" y="400" type="line"/>
    </contour>
    <contour>
      <point x="0" y="400" type="line"/>
      <point x="0" y="300" type="line"/>
      <point x="700" y="300" type="line"/>
      <point x="700" y="400" type="line"/>
    </contour>
    <contour>
      <point x="0" y="100" type="line"/>
      <point x="0" y="0" type="line"/>
      <point x="700" y="0" type="line"/>
      <point x="700" y="100" type="line"/>
    </contour>
  </outline>
</glyph>
<glyph name="R" format="2">
  <advance width="800"/>
  <unicode hex="0052"/>
  <outline>
    <contour>
      <point x="700" y="300" type="line"/>
      <point x="700" y="400" type="line"/>
      <point x="0" y="400" type="line"/>
      <point x="0" y="300" type="line"/>
    </contour>
    <contour>
      <point x="700" y="200" type="line"/>
      <point x="700" y="400" type="line"/>
      <point x="600" y="400" type="line"/>
      <point x="600" y="200" type="line"/>
    </contour>
    <contour>
      <point x="100" y="0" type="line"/>
      <point x="100" y="400" type="line"/>
      <point x="0" y="400" type="line"/>
      <point x="0" y="0" type="line"/>
    </contour>
    <contour>
      <point x="0" y="200" type="line"/>
      <point x="0" y="100" type="line"/>
      <point x="600" y="100" type="line"/>
      <point x="600" y="200" type="line"/>
    </contour>
    <contour>
      <point x="600" y="100" type="line"/>
      <point x="600" y="0" type="line"/>
      <point x="700" y="0" type="line"/>
      <point x="700" y="100" type="line"/>
    </contour>
    <contour>
      <point x="625" y="200" type="line"/>
      <point x="611" y="200"/>
      <point x="600" y="189"/>
      <point x="600" y="175" type="curve"/>
      <point x="600" y="200" type="line"/>
    </contour>
    <contour>
      <point x="600" y="75" type="line"/>
      <point x="600" y="89"/>
      <point x="589" y="100"/>
      <point x="575" y="100" type="curve"/>
      <point x="600" y="100" type="line"/>
    </contour>
    <contour>
      <point x="575" y="200" type="line"/>
      <point x="589" y="200"/>
      <point x="600" y="211"/>
      <point x="600" y="225" type="curve"/>
      <point x="600" y="200" type="line"/>
    </contour>
    <contour>
      <point x="600" y="125" type="line"/>
      <point x="600" y="111"/>
      <point x="611" y="100"/>
      <point x="625" y="100" type="curve"/>
      <point x="600" y="100" type="line"/>
    </contour>
  </outline>
</glyph>
<glyph name="T" format="2">
  <advance width="800"/>
  <unicode hex="0054"/>
  <outline>
    <contour>
      <point x="0" y="400" type="line"/>
      <point x="0" y="300" type="line"/>
      <point x="700" y="300" type="line"/>
      <point x="700" y="400" type="line"/>
    </contour>
    <contour>
      <point x="300" y="400" type="line"/>
      <point x="300" y="0" type="line"/>
      <point x="400" y="0" type="line"/>
      <point x="400" y="400" type="line"/>
    </contour>
    <contour>
      <point x="0" y="200" type="line"/>
      <point x="0" y="100" type="line"/>
      <point x="700" y="100" type="line"/>
      <point x="700" y="200" type="line"/>
    </contour>
  </outline>
</glyph>
<glyph name="bracketleft" format="2">
  <advance width="300"/>
  <unicode hex="005B"/>
  <outline>
    <contour>
      <point x="0" y="400" type="line"/>
      <point x="0" y="0" type="line"/>
      <point x="100" y="0" type="line"/>
      <point x="100" y="400" type="line"/>
    </contour>
    <contour>
      <point x="0" y="100" type="line"/>
      <point x="0" y="0" type="line"/>
      <point x="200" y="0" type="line"/>
      <point x="200" y="100" type="line"/>
    </contour>
    <contour>
      <point x="0" y="400" type="line"/>
      <point x="0" y="300" type="line"/>
      <point x="200" y="300" type="line"/>
      <point x="200" y="400" type="line"/>
    </contour>
  </outline>
</glyph>
<glyph name="asciicircum" format="2">
  <advance width="800"/>
  <unicode hex="005E"/>
  <outline>
    <contour>
      <point x="700" y="100" type="line"/>
      <point x="700" y="200" type="line"/>
      <point x="600" y="200" type="line"/>
      <point x="600" y="100" type="line"/>
    </contour>
    <contour>
      <point x="600" y="200" type="line"/>
      <point x="600" y="300" type="line"/>
      <point x="500" y="300" type="line"/>
      <point x="500" y="200" type="line"/>
    </contour>
    <contour>
      <point x="500" y="300" type="line"/>
      <point x="500" y="400" type="line"/>
      <point x="200" y="400" type="line"/>
      <point x="200" y="300" type="line"/>
    </contour>
    <contour>
      <point x="400" y="0" type="line"/>
      <point x="400" y="400" type="line"/>
      <point x="300" y="400" type="line"/>
      <point x="300" y="0" type="line"/>
    </contour>
    <contour>
      <point x="200" y="200" type="line"/>
      <point x="200" y="300" type="line"/>
      <point x="100" y="300" type="line"/>
      <point x="100" y="200" type="line"/>
    </contour>
    <contour>
      <point x="100" y="100" type="line"/>
      <point x="100" y="200" type="line"/>
      <point x="0" y="200" type="line"/>
      <point x="0" y="100" type="line"/>
    </contour>
    <contour>
      <point x="600" y="175" type="line"/>
      <point x="600" y="189"/>
      <point x="589" y="200"/>
      <point x="575" y="200" type="curve"/>
      <point x="600" y="200" type="line"/>
    </contour>
    <contour>
      <point x="500" y="275" type="line"/>
      <point x="500" y="289"/>
      <point x="489" y="300"/>
      <point x="475" y="300" type="curve"/>
      <point x="500" y="300" type="line"/>
    </contour>
    <contour>
      <point x="600" y="225" type="line"/>
      <point x="600" y="211"/>
      <point x="611" y="200"/>
      <point x="625" y="200" type="curve"/>
      <point x="600" y="200" type="line"/>
    </contour>
    <contour>
      <point x="500" y="325" type="line"/>
      <point x="500" y="311"/>
      <point x="511" y="300"/>
      <point x="525" y="300" type="curve"/>
      <point x="500" y="300" type="line"/>
    </contour>
    <contour>
      <point x="125" y="200" type="line"/>
      <point x="111" y="200"/>
      <point x="100" y="189"/>
      <point x="100" y="175" type="curve"/>
      <point x="100" y="200" type="line"/>
    </contour>
    <contour>
      <point x="225" y="300" type="line"/>
      <point x="211" y="300"/>
      <point x="200" y="289"/>
      <point x="200" y="275" type="curve"/>
      <point x="200" y="300" type="line"/>
    </contour>
    <contour>
      <point x="75" y="200" type="line"/>
      <point x="89" y="200"/>
      <point x="100" y="211"/>
      <point x="100" y="225" type="curve"/>
      <point x="100" y="200" type="line"/>
    </contour>
    <contour>
      <point x="175" y="300" type="line"/>
      <point x="189" y="300"/>
      <point x="200" y="311"/>
      <point x="200" y="325" type="curve"/>
      <point x="200" y="300" type="line"/>
    </contour>
  </outline>
</glyph>
<glyph name="b" format="2">
  <advance width="800"/>
  <unicode hex="0062"/>
  <outline>
    <contour>
      <point x="0" y="400" type="line"/>
      <point x="0" y="0" type="line"/>
      <point x="100" y="0" type="line"/>
      <point x="100" y="400" type="line"/>
    </contour>
    <contour>
      <point x="0" y="100" type="line"/>
      <point x="0" y="0" type="line"/>
      <point x="700" y="0" type="line"/>
      <point x="700" y="100" type="line"/>
    </contour>
    <contour>
      <point x="600" y="300" type="line"/>
      <point x="600" y="0" type="line"/>
      <point x="700" y="0" type="line"/>
      <point x="700" y="300" type="line"/>
    </contour>
    <contour>
      <point x="0" y="400" type="line"/>
      <point x="0" y="300" type="line"/>
      <point x="400" y="300" type="line"/>
      <point x="400" y="400" type="line"/>
    </contour>
    <contour>
      <point x="400" y="300" type="line"/>
      <point x="400" y="200" type="line"/>
      <point x="700" y="200" type="line"/>
      <point x="700" y="300" type="line"/>
    </contour>
    <contour>
      <point x="400" y="275" type="line"/>
      <point x="400" y="289"/>
      <point x="389" y="300"/>
      <point x="375" y="300" type="curve"/>
      <point x="400" y="300" type="line"/>
    </contour>
    <contour>
      <point x="400" y="325" type="line"/>
      <point x="400" y="311"/>
      <point x="411" y="300"/>
      <point x="425" y="300" type="curve"/>
      <point x="400" y="300" type="line"/>
    </contour>
  </outline>
</glyph>
<glyph name="d" format="2">
  <advance width="800"/>
  <unicode hex="0064"/>
  <outline>
    <contour>
      <point x="0" y="100" type="line"/>
      <point x="0" y="0" type="line"/>
      <point x="700" y="0" type="line"/>
      <point x="700" y="100" type="line"/>
    </contour>
    <contour>
      <point x="0" y="400" type="line"/>
      <point x="0" y="300" type="line"/>
      <point x="600" y="300" type="line"/>
      <point x="600" y="400" type="line"/>
    </contour>
    <contour>
      <point x="0" y="400" type="line"/>
      <point x="0" y="0" type="line"/>
      <point x="100" y="0" type="line"/>
      <point x="100" y="400" type="line"/>
    </contour>
    <contour>
      <point x="600" y="300" type="line"/>
      <point x="600" y="0" type="line"/>
      <point x="700" y="0" type="line"/>
      <point x="700" y="300" type="line"/>
    </contour>
    <contour>
      <point x="600" y="275" type="line"/>
      <point x="600" y="289"/>
      <point x="589" y="300"/>
      <point x="575" y="300" type="curve"/>
      <point x="600" y="300" type="line"/>
    </contour>
    <contour>
      <point x="600" y="325" type="line"/>
      <point x="600" y="311"/>
      <point x="611" y="300"/>
      <point x="625" y="300" type="curve"/>
      <point x="600" y="300" type="line"/>
    </contour>
  </outline>
</glyph>
<glyph name="e" format="2">
  <advance width="800"/>
  <unicode hex="0065"/>
  <outline>
    <contour>
      <point x="0" y="100" type="line"/>
      <point x="0" y="0" type="line"/>
      <point x="700" y="0" type="line"/>
      <point x="700" y="100" type="line"/>
    </contour>
    <contour>
      <point x="0" y="300" type="line"/>
      <point x="0" y="0" type="line"/>
      <point x="100" y="0" type="line"/>
      <point x="100" y="300" type="line"/>
    </contour>
    <contour>
      <point x="400" y="400" type="line"/>
      <point x="400" y="300" type="line"/>
      <point x="700" y="300" type="line"/>
      <point x="700" y="400" type="line"/>
    </contour>
    <contour>
      <point x="0" y="300" type="line"/>
      <point x="0" y="200" type="line"/>
      <point x="400" y="200" type="line"/>
      <point x="400" y="300" type="line"/>
    </contour>
    <contour>
      <point x="375" y="300" type="line"/>
      <point x="389" y="300"/>
      <point x="400" y="311"/>
      <point x="400" y="325" type="curve"/>
      <point x="400" y="300" type="line"/>
    </contour>
    <contour>
      <point x="425" y="300" type="line"/>
      <point x="411" y="300"/>
      <point x="400" y="289"/>
      <point x="400" y="275" type="curve"/>
      <point x="400" y="300" type="line"/>
    </contour>
  </outline>
</glyph>
<glyph name="f" format="2">
  <advance width="800"/>
  <unicode hex="0066"/>
  <outline>
    <contour>
      <point x="0" y="400" type="line"/>
      <point x="0" y="300" type="line"/>
      <point x="700" y="300" type="line"/>
      <point x="700" y="400" type="line"/>
    </contour>
    <contour>
      <point x="0" y="400" type="line"/>
      <point x="0" y="200" type="line"/>
      <point x="100" y="200" type="line"/>
      <point x="100" y="400" type="line"/>
    </contour>
    <contour>
      <point x="0" y="100" type="line"/>
      <point x="0" y="0" type="line"/>
      <point x="100" y="0" type="line"/>
      <point x="100" y="100" type="line"/>
    </contour>
    <contour>
      <point x="100" y="200" type="line"/>
      <point x="100" y="100" type="line"/>
      <point x="700" y="100" type="line"/>
      <point x="700" y="200" type="line"/>
    </contour>
    <contour>
      <point x="100" y="175" type="line"/>
      <point x="100" y="189"/>
      <point x="89" y="200"/>
      <point x="75" y="200" type="curve"/>
      <point x="100" y="200" type="line"/>
    </contour>
    <contour>
      <point x="100" y="225" type="line"/>
      <point x="100" y="211"/>
      <point x="111" y="200"/>
      <point x="125" y="200" type="curve"/>
      <point x="100" y="200" type="line"/>
    </contour>
    <contour>
      <point x="75" y="100" type="line"/>
      <point x="89" y="100"/>
      <point x="100" y="111"/>
      <point x="100" y="125" type="curve"/>
      <point x="100" y="100" type="line"/>
    </contour>
    <contour>
      <point x="125" y="100" type="line"/>
      <point x="111" y="100"/>
      <point x="100" y="89"/>
      <point x="100" y="75" type="curve"/>
      <point x="100" y="100" type="line"/>
    </contour>
  </outline>
</glyph>
<glyph name="g" format="2">
  <advance width="800"/>
  <unicode hex="0067"/>
  <outline>
    <contour>
      <point x="0" y="400" type="line"/>
      <point x="0" y="0" type="line"/>
      <point x="100" y="0" type="line"/>
      <point x="100" y="400" type="line"/>
    </contour>
    <contour>
      <point x="600" y="200" type="line"/>
      <point x="600" y="0" type="line"/>
      <point x="700" y="0" type="line"/>
      <point x="700" y="200" type="line"/>
    </contour>
    <contour>
      <point x="0" y="400" type="line"/>
      <point x="0" y="300" type="line"/>
      <point x="700" y="300" type="line"/>
      <point x="700" y="400" type="line"/>
    </contour>
    <contour>
      <point x="0" y="100" type="line"/>
      <point x="0" y="0" type="line"/>
      <point x="500" y="0" type="line"/>
      <point x="500" y="100" type="line"/>
    </contour>
    <contour>
      <point x="500" y="200" type="line"/>
      <point x="500" y="100" type="line"/>
      <point x="700" y="100" type="line"/>
      <point x="700" y="200" type="line"/>
    </contour>
    <contour>
      <point x="475" y="100" type="line"/>
      <point x="489" y="100"/>
      <point x="500" y="111"/>
      <point x="500" y="125" type="curve"/>
      <point x="500" y="100" type="line"/>
    </contour>
    <contour>
      <point x="525" y="100" type="line"/>
      <point x="511" y="100"/>
      <point x="500" y="89"/>
      <point x="500" y="75" type="curve"/>
      <point x="500" y="100" type="line"/>
    </contour>
  </outline>
</glyph>
<glyph name="i" format="2">
  <advance width="200"/>
  <unicode hex="0069"/>
  <outline>
    <contour>
      <point x="0" y="400" type="line"/>
      <point x="0" y="0" type="line"/>
      <point x="100" y="0" type="line"/>
      <point x="100" y="400" type="line"/>
    </contour>
  </outline>
</glyph>
<glyph name="k" format="2">
  <advance width="800"/>
  <unicode hex="006B"/>
  <outline>
    <contour>
      <point x="0" y="400" type="line"/>
      <point x="0" y="0" type="line"/>
      <point x="100" y="0" type="line"/>
      <point x="100" y="400" type="line"/>
    </contour>
    <contour>
      <point x="0" y="300" type="line"/>
      <point x="0" y="200" type="line"/>
      <point x="300" y="200" type="line"/>
      <point x="300" y="300" type="line"/>
    </contour>
    <contour>
      <point x="300" y="400" type="line"/>
      <point x="300" y="300" type="line"/>
      <point x="700" y="300" type="line"/>
      <point x="700" y="400" type="line"/>
    </contour>
    <contour>
      <point x="300" y="200" type="line"/>
      <point x="300" y="100" type="line"/>
      <point x="500" y="100" type="line"/>
      <point x="500" y="200" type="line"/>
    </contour>
    <contour>
      <point x="500" y="100" type="line"/>
      <point x="500" y="0" type="line"/>
      <point x="700" y="0" type="line"/>
      <point x="700" y="100" type="line"/>
    </contour>
    <contour>
      <point x="500" y="75" type="line"/>
      <point x="500" y="89"/>
      <point x="489" y="100"/>
      <point x="475" y="100" type="curve"/>
      <point x="500" y="100" type="line"/>
    </contour>
    <contour>
      <point x="500" y="125" type="line"/>
      <point x="500" y="111"/>
      <point x="511" y="100"/>
      <point x="525" y="100" type="curve"/>
      <point x="500" y="100" type="line"/>
    </contour>
    <contour>
      <point x="300" y="175" type="line"/>
      <point x="300" y="189"/>
      <point x="289" y="200"/>
      <point x="275" y="200" type="curve"/>
      <point x="300" y="200" type="line"/>
    </contour>
    <contour>
      <point x="300" y="225" type="line"/>
      <point x="300" y="211"/>
      <point x="311" y="200"/>
      <point x="325" y="200" type="curve"/>
      <point x="300" y="200" type="line"/>
    </contour>
    <contour>
      <point x="275" y="300" type="line"/>
      <point x="289" y="300"/>
      <point x="300" y="311"/>
      <point x="300" y="325" type="curve"/>
      <point x="300" y="300" type="line"/>
    </contour>
    <contour>
      <point x="325" y="300" type="line"/>
      <point x="311" y="300"/>
      <point x="300" y="289"/>
      <point x="300" y="275" type="curve"/>
      <point x="300" y="300" type="line"/>
    </contour>
  </outline>
</glyph>
<glyph name="l" format="2">
  <advance width="800"/>
  <unicode hex="006C"/>
  <outline>
    <contour>
      <point x="0" y="100" type="line"/>
      <point x="0" y="0" type="line"/>
      <point x="700" y="0" type="line"/>
      <point x="700" y="100" type="line"/>
    </contour>
    <contour>
      <point x="0" y="400" type="line"/>
      <point x="0" y="0" type="line"/>
      <point x="100" y="0" type="line"/>
      <point x="100" y="400" type="line"/>
    </contour>
  </outline>
</glyph>
<glyph name="m" format="2">
  <advance width="800"/>
  <unicode hex="006D"/>
  <outline>
    <contour>
      <point x="200" y="300" type="line"/>
      <point x="200" y="400" type="line"/>
      <point x="0" y="400" type="line"/>
      <point x="0" y="300" type="line"/>
    </contour>
    <contour>
      <point x="700" y="0" type="line"/>
      <point x="700" y="400" type="line"/>
      <point x="600" y="400" type="line"/>
      <point x="600" y="0" type="line"/>
    </contour>
    <contour>
      <point x="100" y="0" type="line"/>
      <point x="100" y="400" type="line"/>
      <point x="0" y="400" type="line"/>
      <point x="0" y="0" type="line"/>
    </contour>
    <contour>
      <point x="700" y="300" type="line"/>
      <point x="700" y="400" type="line"/>
      <point x="500" y="400" type="line"/>
      <point x="500" y="300" type="line"/>
    </contour>
    <contour>
      <point x="500" y="200" type="line"/>
      <point x="500" y="300" type="line"/>
      <point x="200" y="300" type="line"/>
      <point x="200" y="200" type="line"/>
    </contour>
    <contour>
      <point x="200" y="275" type="line"/>
      <point x="200" y="289"/>
      <point x="189" y="300"/>
      <point x="175" y="300" type="curve"/>
      <point x="200" y="300" type="line"/>
    </contour>
    <contour>
      <point x="200" y="325" type="line"/>
      <point x="200" y="311"/>
      <point x="211" y="300"/>
      <point x="225" y="300" type="curve"/>
      <point x="200" y="300" type="line"/>
    </contour>
    <contour>
      <point x="475" y="300" type="line"/>
      <point x="489" y="300"/>
      <point x="500" y="311"/>
      <point x="500" y="325" type="curve"/>
      <point x="500" y="300" type="line"/>
    </contour>
    <contour>
      <point x="525" y="300" type="line"/>
      <point x="511" y="300"/>
      <point x="500" y="289"/>
      <point x="500" y="275" type="curve"/>
      <point x="500" y="300" type="line"/>
    </contour>
  </outline>
</glyph>
<glyph name="n" format="2">
  <advance width="800"/>
  <unicode hex="006E"/>
  <outline>
    <contour>
      <point x="700" y="300" type="line"/>
      <point x="700" y="400" type="line"/>
      <point x="0" y="400" type="line"/>
      <point x="0" y="300" type="line"/>
    </contour>
    <contour>
      <point x="700" y="0" type="line"/>
      <point x="700" y="400" type="line"/>
      <point x="600" y="400" type="line"/>
      <point x="600" y="0" type="line"/>
    </contour>
    <contour>
      <point x="100" y="0" type="line"/>
      <point x="100" y="400" type="line"/>
      <point x="0" y="400" type="line"/>
      <point x="0" y="0" type="line"/>
    </contour>
  </outline>
</glyph>
<glyph name="o" format="2">
  <advance width="800"/>
  <unicode hex="006F"/>
  <outline>
    <contour>
      <point x="0" y="100" type="line"/>
      <point x="0" y="0" type="line"/>
      <point x="600" y="0" type="line"/>
      <point x="600" y="100" type="line"/>
    </contour>
    <contour>
      <point x="100" y="400" type="line"/>
      <point x="100" y="300" type="line"/>
      <point x="700" y="300" type="line"/>
      <point x="700" y="400" type="line"/>
    </contour>
    <contour>
      <point x="600" y="400" type="line"/>
      <point x="600" y="100" type="line"/>
      <point x="700" y="100" type="line"/>
      <point x="700" y="400" type="line"/>
    </contour>
    <contour>
      <point x="0" y="300" type="line"/>
      <point x="0" y="0" type="line"/>
      <point x="100" y="0" type="line"/>
      <point x="100" y="300" type="line"/>
    </contour>
    <contour>
      <point x="100" y="300" type="move"/>
    </contour>
    <contour>
      <point x="75" y="300" type="line"/>
      <point x="89" y="300"/>
      <point x="100" y="311"/>
      <point x="100" y="325" type="curve"/>
      <point x="100" y="300" type="line"/>
    </contour>
    <contour>
      <point x="125" y="300" type="line"/>
      <point x="111" y="300"/>
      <point x="100" y="289"/>
      <point x="100" y="275" type="curve"/>
      <point x="100" y="300" type="line"/>
    </contour>
    <contour>
      <point x="600" y="100" type="move"/>
    </contour>
    <contour>
      <point x="575" y="100" type="line"/>
      <point x="589" y="100"/>
      <point x="600" y="111"/>
      <point x="600" y="125" type="curve"/>
      <point x="600" y="100" type="line"/>
    </contour>
    <contour>
      <point x="625" y="100" type="line"/>
      <point x="611" y="100"/>
      <point x="600" y="89"/>
      <point x="600" y="75" type="curve"/>
      <point x="600" y="100" type="line"/>
    </contour>
  </outline>
</glyph>
<glyph name="r" format="2">
  <advance width="800"/>
  <unicode hex="0072"/>
  <outline>
    <contour>
      <point x="0" y="400" type="line"/>
      <point x="0" y="300" type="line"/>
      <point x="700" y="300" type="line"/>
      <point x="700" y="400" type="line"/>
    </contour>
    <contour>
      <point x="0" y="400" type="line"/>
      <point x="0" y="0" type="line"/>
      <point x="100" y="0" type="line"/>
      <point x="100" y="400" type="line"/>
    </contour>
  </outline>
</glyph>
<glyph name="s" format="2">
  <advance width="800"/>
  <unicode hex="0073"/>
  <outline>
    <contour>
      <point x="0" y="100" type="line"/>
      <point x="0" y="0" type="line"/>
      <point x="700" y="0" type="line"/>
      <point x="700" y="100" type="line"/>
    </contour>
    <contour>
      <point x="600" y="200" type="line"/>
      <point x="600" y="0" type="line"/>
      <point x="700" y="0" type="line"/>
      <point x="700" y="200" type="line"/>
    </contour>
    <contour>
      <point x="100" y="400" type="line"/>
      <point x="100" y="300" type="line"/>
      <point x="700" y="300" type="line"/>
      <point x="700" y="400" type="line"/>
    </contour>
    <contour>
      <point x="75" y="300" type="line"/>
      <point x="89" y="300"/>
      <point x="100" y="311"/>
      <point x="100" y="325" type="curve"/>
      <point x="100" y="300" type="line"/>
    </contour>
    <contour>
      <point x="125" y="300" type="line"/>
      <point x="111" y="300"/>
      <point x="100" y="289"/>
      <point x="100" y="275" type="curve"/>
      <point x="100" y="300" type="line"/>
    </contour>
    <contour>
      <point x="0" y="300" type="line"/>
      <point x="0" y="200" type="line"/>
      <point x="100" y="200" type="line"/>
      <point x="100" y="300" type="line"/>
    </contour>
  </outline>
</glyph>
<glyph name="t" format="2">
  <advance width="800"/>
  <unicode hex="0074"/>
  <outline>
    <contour>
      <point x="0" y="400" type="line"/>
      <point x="0" y="300" type="line"/>
      <point x="700" y="300" type="line"/>
      <point x="700" y="400" type="line"/>
    </contour>
    <contour>
      <point x="300" y="400" type="line"/>
      <point x="300" y="0" type="line"/>
      <point x="400" y="0" type="line"/>
      <point x="400" y="400" type="line"/>
    </contour>
  </outline>
</glyph>
<glyph name="u" format="2">
  <advance width="800"/>
  <unicode hex="0075"/>
  <outline>
    <contour>
      <point x="0" y="100" type="line"/>
      <point x="0" y="0" type="line"/>
      <point x="700" y="0" type="line"/>
      <point x="700" y="100" type="line"/>
    </contour>
    <contour>
      <point x="0" y="400" type="line"/>
      <point x="0" y="0" type="line"/>
      <point x="100" y="0" type="line"/>
      <point x="100" y="400" type="line"/>
    </contour>
    <contour>
      <point x="600" y="400" type="line"/>
      <point x="600" y="0" type="line"/>
      <point x="700" y="0" type="line"/>
      <point x="700" y="400" type="line"/>
    </contour>
  </outline>
</glyph>
<glyph name="v" format="2">
  <advance width="800"/>
  <unicode hex="0076"/>
  <outline>
    <contour>
      <point x="0" y="400" type="line"/>
      <point x="0" y="300" type="line"/>
      <point x="100" y="300" type="line"/>
      <point x="100" y="400" type="line"/>
    </contour>
    <contour>
      <point x="100" y="300" type="line"/>
      <point x="100" y="200" type="line"/>
      <point x="200" y="200" type="line"/>
      <point x="200" y="300" type="line"/>
    </contour>
    <contour>
      <point x="200" y="200" type="line"/>
      <point x="200" y="100" type="line"/>
      <point x="300" y="100" type="line"/>
      <point x="300" y="200" type="line"/>
    </contour>
    <contour>
      <point x="300" y="100" type="line"/>
      <point x="300" y="0" type="line"/>
      <point x="400" y="0" type="line"/>
      <point x="400" y="100" type="line"/>
    </contour>
    <contour>
      <point x="400" y="200" type="line"/>
      <point x="400" y="100" type="line"/>
      <point x="500" y="100" type="line"/>
      <point x="500" y="200" type="line"/>
    </contour>
    <contour>
      <point x="500" y="300" type="line"/>
      <point x="500" y="200" type="line"/>
      <point x="600" y="200" type="line"/>
      <point x="600" y="300" type="line"/>
    </contour>
    <contour>
      <point x="600" y="400" type="line"/>
      <point x="600" y="300" type="line"/>
      <point x="700" y="300" type="line"/>
      <point x="700" y="400" type="line"/>
    </contour>
    <contour>
      <point x="100" y="325" type="line"/>
      <point x="100" y="311"/>
      <point x="111" y="300"/>
      <point x="125" y="300" type="curve"/>
      <point x="100" y="300" type="line"/>
    </contour>
    <contour>
      <point x="200" y="225" type="line"/>
      <point x="200" y="211"/>
      <point x="211" y="200"/>
      <point x="225" y="200" type="curve"/>
      <point x="200" y="200" type="line"/>
    </contour>
    <contour>
      <point x="300" y="125" type="line"/>
      <point x="300" y="111"/>
      <point x="311" y="100"/>
      <point x="325" y="100" type="curve"/>
      <point x="300" y="100" type="line"/>
    </contour>
    <contour>
      <point x="100" y="275" type="line"/>
      <point x="100" y="289"/>
      <point x="89" y="300"/>
      <point x="75" y="300" type="curve"/>
      <point x="100" y="300" type="line"/>
    </contour>
    <contour>
      <point x="200" y="175" type="line"/>
      <point x="200" y="189"/>
      <point x="189" y="200"/>
      <point x="175" y="200" type="curve"/>
      <point x="200" y="200" type="line"/>
    </contour>
    <contour>
      <point x="300" y="75" type="line"/>
      <point x="300" y="89"/>
      <point x="289" y="100"/>
      <point x="275" y="100" type="curve"/>
      <point x="300" y="100" type="line"/>
    </contour>
    <contour>
      <point x="575" y="300" type="line"/>
      <point x="589" y="300"/>
      <point x="600" y="311"/>
      <point x="600" y="325" type="curve"/>
      <point x="600" y="300" type="line"/>
    </contour>
    <contour>
      <point x="475" y="200" type="line"/>
      <point x="489" y="200"/>
      <point x="500" y="211"/>
      <point x="500" y="225" type="curve"/>
      <point x="500" y="200" type="line"/>
    </contour>
    <contour>
      <point x="375" y="100" type="line"/>
      <point x="389" y="100"/>
      <point x="400" y="111"/>
      <point x="400" y="125" type="curve"/>
      <point x="400" y="100" type="line"/>
    </contour>
    <contour>
      <point x="625" y="300" type="line"/>
      <point x="611" y="300"/>
      <point x="600" y="289"/>
      <point x="600" y="275" type="curve"/>
      <point x="600" y="300" type="line"/>
    </contour>
    <contour>
      <point x="525" y="200" type="line"/>
      <point x="511" y="200"/>
      <point x="500" y="189"/>
      <point x="500" y="175" type="curve"/>
      <point x="500" y="200" type="line"/>
    </contour>
    <contour>
      <point x="425" y="100" type="line"/>
      <point x="411" y="100"/>
      <point x="400" y="89"/>
      <point x="400" y="75" type="curve"/>
      <point x="400" y="100" type="line"/>
    </contour>
  </outline>
</glyph>
<glyph name="x" format="2">
  <advance width="800"/>
  <unicode hex="0078"/>
  <outline>
    <contour>
      <point x="100" y="300" type="line"/>
      <point x="100" y="200" type="line"/>
      <point x="600" y="200" type="line"/>
      <point x="600" y="300" type="line"/>
    </contour>
    <contour>
      <point x="0" y="400" type="line"/>
      <point x="0" y="300" type="line"/>
      <point x="100" y="300" type="line"/>
      <point x="100" y="400" type="line"/>
    </contour>
    <contour>
      <point x="0" y="200" type="line"/>
      <point x="0" y="0" type="line"/>
      <point x="100" y="0" type="line"/>
      <point x="100" y="200" type="line"/>
    </contour>
    <contour>
      <point x="600" y="400" type="line"/>
      <point x="600" y="300" type="line"/>
      <point x="700" y="300" type="line"/>
      <point x="700" y="400" type="line"/>
    </contour>
    <contour>
      <point x="600" y="200" type="line"/>
      <point x="600" y="0" type="line"/>
      <point x="700" y="0" type="line"/>
      <point x="700" y="200" type="line"/>
    </contour>
    <contour>
      <point x="625" y="300" type="line"/>
      <point x="611" y="300"/>
      <point x="600" y="289"/>
      <point x="600" y="275" type="curve"/>
      <point x="600" y="300" type="line"/>
    </contour>
    <contour>
      <point x="575" y="300" type="line"/>
      <point x="589" y="300"/>
      <point x="600" y="311"/>
      <point x="600" y="325" type="curve"/>
      <point x="600" y="300" type="line"/>
    </contour>
    <contour>
      <point x="75" y="200" type="line"/>
      <point x="89" y="200"/>
      <point x="100" y="211"/>
      <point x="100" y="225" type="curve"/>
      <point x="100" y="200" type="line"/>
    </contour>
    <contour>
      <point x="575" y="300" type="line"/>
      <point x="589" y="300"/>
      <point x="600" y="311"/>
      <point x="600" y="325" type="curve"/>
      <point x="600" y="300" type="line"/>
    </contour>
    <contour>
      <point x="100" y="325" type="line"/>
      <point x="100" y="311"/>
      <point x="111" y="300"/>
      <point x="125" y="300" type="curve"/>
      <point x="100" y="300" type="line"/>
    </contour>
    <contour>
      <point x="125" y="200" type="line"/>
      <point x="111" y="200"/>
      <point x="100" y="189"/>
      <point x="100" y="175" type="curve"/>
      <point x="100" y="200" type="line"/>
    </contour>
    <contour>
      <point x="100" y="275" type="line"/>
      <point x="100" y="289"/>
      <point x="89" y="300"/>
      <point x="75" y="300" type="curve"/>
      <point x="100" y="300" type="line"/>
    </contour>
    <contour>
      <point x="600" y="175" type="line"/>
      <point x="600" y="189"/>
      <point x="589" y="200"/>
      <point x="575" y="200" type="curve"/>
      <point x="600" y="200" type="line"/>
    </contour>
    <contour>
      <point x="600" y="225" type="line"/>
      <point x="600" y="211"/>
      <point x="611" y="200"/>
      <point x="625" y="200" type="curve"/>
      <point x="600" y="200" type="line"/>
    </contour>
  </outline>
</glyph>
<glyph name="y" format="2">
  <advance width="800"/>
  <unicode hex="0079"/>
  <outline>
    <contour>
      <point x="300" y="200" type="line"/>
      <point x="300" y="0" type="line"/>
      <point x="400" y="0" type="line"/>
      <point x="400" y="200" type="line"/>
    </contour>
    <contour>
      <point x="0" y="400" type="line"/>
      <point x="0" y="200" type="line"/>
      <point x="100" y="200" type="line"/>
      <point x="100" y="400" type="line"/>
    </contour>
    <contour>
      <point x="600" y="400" type="line"/>
      <point x="600" y="200" type="line"/>
      <point x="700" y="200" type="line"/>
      <point x="700" y="400" type="line"/>
    </contour>
    <contour>
      <point x="0" y="300" type="line"/>
      <point x="0" y="200" type="line"/>
      <point x="300" y="200" type="line"/>
      <point x="300" y="300" type="line"/>
    </contour>
    <contour>
      <point x="400" y="300" type="line"/>
      <point x="400" y="200" type="line"/>
      <point x="700" y="200" type="line"/>
      <point x="700" y="300" type="line"/>
    </contour>
    <contour>
      <point x="425" y="200" type="line"/>
      <point x="411" y="200"/>
      <point x="400" y="189"/>
      <point x="400" y="175" type="curve"/>
      <point x="400" y="200" type="line"/>
    </contour>
    <contour>
      <point x="300" y="175" type="line"/>
      <point x="300" y="189"/>
      <point x="289" y="200"/>
      <point x="275" y="200" type="curve"/>
      <point x="300" y="200" type="line"/>
    </contour>
    <contour>
      <point x="375" y="200" type="line"/>
      <point x="389" y="200"/>
      <point x="400" y="211"/>
      <point x="400" y="225" type="curve"/>
      <point x="400" y="200" type="line"/>
    </contour>
    <contour>
      <point x="300" y="225" type="line"/>
      <point x="300" y="211"/>
      <point x="311" y="200"/>
      <point x="325" y="200" type="curve"/>
      <point x="300" y="200" type="line"/>
    </contour>
  </outline>
</glyph>
<glyph name="AE" format="2">
  <advance width="3200"/>
  <unicode hex="00C6"/>
  <guideline x="1400" y="400" angle="0"/>
  <guideline x="1500" y="300" angle="90"/>
  <outline>
    <contour>
      <point x="0" y="400" type="line"/>
      <point x="0" y="300" type="line"/>
      <point x="700" y="300" type="line"/>
      <point x="700" y="400" type="line"/>
    </contour>
    <contour>
      <point x="600" y="400" type="line"/>
      <point x="600" y="200" type="line"/>
      <point x="700" y="200" type="line"/>
      <point x="700" y="400" type="line"/>
    </contour>
    <contour>
      <point x="500" y="200" type="line"/>
      <point x="500" y="100" type="line"/>
      <point x="600" y="100" type="line"/>
      <point x="600" y="200" type="line"/>
    </contour>
    <contour>
      <point x="300" y="200" type="line"/>
      <point x="300" y="100" type="line"/>
      <point x="400" y="100" type="line"/>
      <point x="400" y="200" type="line"/>
    </contour>
    <contour>
      <point x="100" y="100" type="line"/>
      <point x="100" y="0" type="line"/>
      <point x="300" y="0" type="line"/>
      <point x="300" y="100" type="line"/>
    </contour>
    <contour>
      <point x="800" y="400" type="line"/>
      <point x="800" y="300" type="line"/>
      <point x="900" y="300" type="line"/>
      <point x="900" y="400" type="line"/>
    </contour>
    <contour>
      <point x="900" y="300" type="line"/>
      <point x="900" y="200" type="line"/>
      <point x="1000" y="200" type="line"/>
      <point x="1000" y="300" type="line"/>
    </contour>
    <contour>
      <point x="1400" y="400" type="line"/>
      <point x="1400" y="200" type="line"/>
      <point x="1500" y="200" type="line"/>
      <point x="1500" y="400" type="line"/>
    </contour>
    <contour>
      <point x="1300" y="200" type="line"/>
      <point x="1300" y="100" type="line"/>
      <point x="1400" y="100" type="line"/>
      <point x="1400" y="200" type="line"/>
    </contour>
    <contour>
      <point x="800" y="100" type="line"/>
      <point x="800" y="0" type="line"/>
      <point x="1300" y="0" type="line"/>
      <point x="1300" y="100" type="line"/>
    </contour>
    <contour>
      <point x="1600" y="200" type="line"/>
      <point x="1600" y="100" type="line"/>
      <point x="1700" y="100" type="line"/>
      <point x="1700" y="200" type="line"/>
    </contour>
    <contour>
      <point x="1700" y="300" type="line"/>
      <point x="1700" y="200" type="line"/>
      <point x="1800" y="200" type="line"/>
      <point x="1800" y="300" type="line"/>
    </contour>
    <contour>
      <point x="1800" y="400" type="line"/>
      <point x="1800" y="300" type="line"/>
      <point x="2000" y="300" type="line"/>
      <point x="2000" y="400" type="line"/>
    </contour>
    <contour>
      <point x="2000" y="300" type="line"/>
      <point x="2000" y="200" type="line"/>
      <point x="2100" y="200" type="line"/>
      <point x="2100" y="300" type="line"/>
    </contour>
    <contour>
      <point x="2100" y="200" type="line"/>
      <point x="2100" y="100" type="line"/>
      <point x="2200" y="100" type="line"/>
      <point x="2200" y="200" type="line"/>
    </contour>
    <contour>
      <point x="2200" y="100" type="line"/>
      <point x="2200" y="0" type="line"/>
      <point x="2300" y="0" type="line"/>
      <point x="2300" y="100" type="line"/>
    </contour>
    <contour>
      <point x="2400" y="100" type="line"/>
      <point x="2400" y="0" type="line"/>
      <point x="2500" y="0" type="line"/>
      <point x="2500" y="100" type="line"/>
    </contour>
    <contour>
      <point x="2500" y="400" type="line"/>
      <point x="2500" y="100" type="line"/>
      <point x="2600" y="100" type="line"/>
      <point x="2600" y="400" type="line"/>
    </contour>
    <contour>
      <point x="2700" y="400" type="line"/>
      <point x="2700" y="0" type="line"/>
      <point x="2800" y="0" type="line"/>
      <point x="2800" y="400" type="line"/>
    </contour>
    <contour>
      <point x="2700" y="100" type="line"/>
      <point x="2700" y="0" type="line"/>
      <point x="2900" y="0" type="line"/>
      <point x="2900" y="100" type="line"/>
    </contour>
    <contour>
      <point x="2900" y="200" type="line"/>
      <point x="2900" y="100" type="line"/>
      <point x="3000" y="100" type="line"/>
      <point x="3000" y="200" type="line"/>
    </contour>
    <contour>
      <point x="3000" y="300" type="line"/>
      <point x="3000" y="200" type="line"/>
      <point x="3100" y="200" type="line"/>
      <point x="3100" y="300" type="line"/>
    </contour>
    <contour>
      <point x="275" y="100" type="line"/>
      <point x="289" y="100"/>
      <point x="300" y="111"/>
      <point x="300" y="125" type="curve"/>
      <point x="300" y="100" type="line"/>
    </contour>
    <contour>
      <point x="575" y="200" type="line"/>
      <point x="589" y="200"/>
      <point x="600" y="211"/>
      <point x="600" y="225" type="curve"/>
      <point x="600" y="200" type="line"/>
    </contour>
    <contour>
      <point x="1275" y="100" type="line"/>
      <point x="1289" y="100"/>
      <point x="1300" y="111"/>
      <point x="1300" y="125" type="curve"/>
      <point x="1300" y="100" type="line"/>
    </contour>
    <contour>
      <point x="1675" y="200" type="line"/>
      <point x="1689" y="200"/>
      <point x="1700" y="211"/>
      <point x="1700" y="225" type="curve"/>
      <point x="1700" y="200" type="line"/>
    </contour>
    <contour>
      <point x="1775" y="300" type="line"/>
      <point x="1789" y="300"/>
      <point x="1800" y="311"/>
      <point x="1800" y="325" type="curve"/>
      <point x="1800" y="300" type="line"/>
    </contour>
    <contour>
      <point x="2475" y="100" type="line"/>
      <point x="2489" y="100"/>
      <point x="2500" y="111"/>
      <point x="2500" y="125" type="curve"/>
      <point x="2500" y="100" type="line"/>
    </contour>
    <contour>
      <point x="2875" y="100" type="line"/>
      <point x="2889" y="100"/>
      <point x="2900" y="111"/>
      <point x="2900" y="125" type="curve"/>
      <point x="2900" y="100" type="line"/>
    </contour>
    <contour>
      <point x="2975" y="200" type="line"/>
      <point x="2989" y="200"/>
      <point x="3000" y="211"/>
      <point x="3000" y="225" type="curve"/>
      <point x="3000" y="200" type="line"/>
    </contour>
    <contour>
      <point x="3025" y="200" type="line"/>
      <point x="3011" y="200"/>
      <point x="3000" y="189"/>
      <point x="3000" y="175" type="curve"/>
      <point x="3000" y="200" type="line"/>
    </contour>
    <contour>
      <point x="2925" y="100" type="line"/>
      <point x="2911" y="100"/>
      <point x="2900" y="89"/>
      <point x="2900" y="75" type="curve"/>
      <point x="2900" y="100" type="line"/>
    </contour>
    <contour>
      <point x="2525" y="100" type="line"/>
      <point x="2511" y="100"/>
      <point x="2500" y="89"/>
      <point x="2500" y="75" type="curve"/>
      <point x="2500" y="100" type="line"/>
    </contour>
    <contour>
      <point x="1825" y="300" type="line"/>
      <point x="1811" y="300"/>
      <point x="1800" y="289"/>
      <point x="1800" y="275" type="curve"/>
      <point x="1800" y="300" type="line"/>
    </contour>
    <contour>
      <point x="1725" y="200" type="line"/>
      <point x="1711" y="200"/>
      <point x="1700" y="189"/>
      <point x="1700" y="175" type="curve"/>
      <point x="1700" y="200" type="line"/>
    </contour>
    <contour>
      <point x="1425" y="200" type="line"/>
      <point x="1411" y="200"/>
      <point x="1400" y="189"/>
      <point x="1400" y="175" type="curve"/>
      <point x="1400" y="200" type="line"/>
    </contour>
    <contour>
      <point x="1325" y="100" type="line"/>
      <point x="1311" y="100"/>
      <point x="1300" y="89"/>
      <point x="1300" y="75" type="curve"/>
      <point x="1300" y="100" type="line"/>
    </contour>
    <contour>
      <point x="1375" y="200" type="line"/>
      <point x="1389" y="200"/>
      <point x="1400" y="211"/>
      <point x="1400" y="225" type="curve"/>
      <point x="1400" y="200" type="line"/>
    </contour>
    <contour>
      <point x="625" y="200" type="line"/>
      <point x="611" y="200"/>
      <point x="600" y="189"/>
      <point x="600" y="175" type="curve"/>
      <point x="600" y="200" type="line"/>
    </contour>
    <contour>
      <point x="325" y="100" type="line"/>
      <point x="311" y="100"/>
      <point x="300" y="89"/>
      <point x="300" y="75" type="curve"/>
      <point x="300" y="100" type="line"/>
    </contour>
    <contour>
      <point x="900" y="325" type="line"/>
      <point x="900" y="311"/>
      <point x="911" y="300"/>
      <point x="925" y="300" type="curve"/>
      <point x="900" y="300" type="line"/>
    </contour>
    <contour>
      <point x="900" y="275" type="line"/>
      <point x="900" y="289"/>
      <point x="889" y="300"/>
      <point x="875" y="300" type="curve"/>
      <point x="900" y="300" type="line"/>
    </contour>
    <contour>
      <point x="2000" y="325" type="line"/>
      <point x="2000" y="311"/>
      <point x="2011" y="300"/>
      <point x="2025" y="300" type="curve"/>
      <point x="2000" y="300" type="line"/>
    </contour>
    <contour>
      <point x="2000" y="275" type="line"/>
      <point x="2000" y="289"/>
      <point x="1989" y="300"/>
      <point x="1975" y="300" type="curve"/>
      <point x="2000" y="300" type="line"/>
    </contour>
    <contour>
      <point x="2100" y="225" type="line"/>
      <point x="2100" y="211"/>
      <point x="2111" y="200"/>
      <point x="2125" y="200" type="curve"/>
      <point x="2100" y="200" type="line"/>
    </contour>
    <contour>
      <point x="2100" y="175" type="line"/>
      <point x="2100" y="189"/>
      <point x="2089" y="200"/>
      <point x="2075" y="200" type="curve"/>
      <point x="2100" y="200" type="line"/>
    </contour>
    <contour>
      <point x="2200" y="125" type="line"/>
      <point x="2200" y="111"/>
      <point x="2211" y="100"/>
      <point x="2225" y="100" type="curve"/>
      <point x="2200" y="100" type="line"/>
    </contour>
    <contour>
      <point x="2200" y="75" type="line"/>
      <point x="2200" y="89"/>
      <point x="2189" y="100"/>
      <point x="2175" y="100" type="curve"/>
      <point x="2200" y="100" type="line"/>
    </contour>
  </outline>
</glyph>
<glyph name="thorn" format="2">
  <advance width="800"/>
  <unicode hex="00FE"/>
  <outline>
    <contour>
      <point x="700" y="200" type="line"/>
      <point x="700" y="300" type="line"/>
      <point x="0" y="300" type="line"/>
      <point x="0" y="200" type="line"/>
    </contour>
    <contour>
      <point x="700" y="100" type="line"/>
      <point x="700" y="300" type="line"/>
      <point x="600" y="300" type="line"/>
      <point x="600" y="100" type="line"/>
    </contour>
    <contour>
      <point x="100" y="0" type="line"/>
      <point x="100" y="400" type="line"/>
      <point x="0" y="400" type="line"/>
      <point x="0" y="0" type="line"/>
    </contour>
  </outline>
</glyph>
